<?xml version="1.0" standalone="no"?>
<!DOCTYPE svg PUBLIC "-//W3C//DTD SVG 20010904//EN"
 "http://www.w3.org/TR/2001/REC-SVG-20010904/DTD/svg10.dtd">
<svg version="1.0" xmlns="http://www.w3.org/2000/svg"
 width="151.000000pt" height="151.000000pt" viewBox="0 0 151.000000 151.000000"
 preserveAspectRatio="xMidYMid meet">
<metadata>
Created by potrace 1.14, written by Peter Selinger 2001-2017
</metadata>
<g transform="translate(0.000000,151.000000) scale(0.100000,-0.100000)"
fill="#000000" stroke="none">
<path d="M657 1494 c-4 -5 -13 -9 -20 -10 -7 -1 -28 -5 -47 -9 -19 -3 -42 -7
-50 -9 -9 -1 -21 -5 -28 -10 -6 -4 -17 -4 -24 0 -7 4 -8 3 -4 -4 4 -8 0 -12
-11 -12 -10 0 -28 -7 -39 -15 -12 -8 -24 -11 -28 -8 -3 3 -6 1 -6 -5 0 -7 -6
-12 -14 -12 -7 0 -26 -12 -42 -27 -16 -15 -32 -28 -36 -28 -3 0 -16 -11 -28
-25 -12 -14 -27 -24 -32 -22 -5 1 -6 -2 -3 -8 4 -6 0 -19 -9 -28 -37 -41 -51
-60 -54 -73 -2 -8 -8 -16 -13 -17 -5 -2 -6 -8 -3 -13 3 -6 0 -17 -7 -25 -14
-17 -16 -194 -3 -216 16 -25 14 -48 -6 -68 -11 -11 -20 -22 -20 -25 0 -5 -26
-39 -53 -67 -9 -10 -14 -18 -11 -18 3 0 -3 -15 -13 -33 -17 -27 -22 -64 -13
-87 1 -3 2 -8 1 -12 0 -5 6 -8 14 -8 8 0 15 -7 15 -15 0 -9 6 -12 17 -8 11 4
14 3 9 -5 -4 -7 -1 -12 9 -12 23 0 44 -24 41 -46 -2 -10 1 -27 6 -36 6 -13 5
-18 -4 -18 -9 0 -9 -3 2 -10 8 -5 11 -10 6 -10 -5 0 -1 -9 9 -20 10 -11 15
-20 10 -20 -4 0 -1 -8 6 -17 12 -15 12 -16 -1 -8 -13 7 -13 6 -2 -7 7 -9 15
-35 17 -59 3 -24 8 -55 11 -69 3 -14 6 -31 6 -37 1 -7 5 -13 11 -13 5 0 7 -5
5 -12 -7 -19 55 -75 92 -84 40 -9 122 -7 130 4 3 4 16 9 30 11 14 1 27 7 30
11 3 5 21 12 39 15 19 3 38 8 43 11 4 3 11 -2 14 -10 3 -9 10 -13 15 -10 5 3
12 -2 15 -10 3 -9 12 -16 20 -16 8 0 14 -5 14 -11 0 -6 6 -9 14 -6 8 3 20 -1
26 -9 7 -8 20 -14 30 -14 9 0 20 -3 24 -7 6 -7 24 -11 59 -15 9 -1 17 -5 17
-8 0 -3 19 -7 43 -9 53 -4 92 -8 92 -11 0 -1 14 -2 32 -3 17 -1 29 1 26 6 -2
4 1 7 6 7 6 0 11 -5 11 -11 0 -7 7 -8 18 -4 16 6 72 16 100 18 6 0 12 4 12 9
0 4 7 8 15 8 9 0 18 7 21 15 4 8 10 13 14 10 4 -3 13 9 19 25 5 17 7 30 4 30
-3 0 0 7 7 15 7 8 8 15 3 15 -5 0 -9 8 -10 18 -1 9 -3 24 -6 32 -2 8 -7 29
-12 45 -4 17 -10 35 -14 40 -13 23 -22 165 -11 165 5 0 6 9 3 20 -3 11 -1 20
5 20 5 0 9 8 9 18 -1 25 14 72 23 72 7 0 25 77 21 94 -1 5 4 6 12 3 14 -5 16
0 20 47 1 13 6 22 11 18 5 -3 7 2 3 11 -3 10 -2 17 3 17 6 0 10 9 10 19 0 11
4 22 8 25 8 5 13 42 13 89 0 10 5 15 11 11 7 -5 8 -2 2 7 -13 21 -14 39 -2 39
6 0 5 6 -2 15 -10 12 -10 15 1 15 9 0 10 3 3 8 -5 4 -10 22 -9 40 0 18 -3 35
-7 38 -4 3 -5 11 -2 18 3 8 0 17 -5 21 -6 3 -9 11 -5 16 3 5 -1 21 -10 34 -9
13 -16 30 -16 36 0 6 -10 20 -22 30 -11 11 -16 19 -9 19 6 0 -13 25 -44 55
-30 30 -59 55 -65 55 -6 0 -8 5 -5 10 3 6 -3 10 -14 10 -10 0 -21 4 -23 9 -1
5 -10 11 -18 13 -8 2 -17 5 -20 8 -15 15 -71 40 -79 35 -6 -3 -14 3 -20 12 -8
14 -10 15 -11 3 0 -12 -2 -12 -9 -2 -4 8 -11 13 -15 13 -3 -1 -7 -1 -8 0 -2 1
-22 3 -45 5 -24 2 -52 8 -63 14 -14 8 -20 8 -20 0 0 -6 -5 -8 -12 -4 -16 10
-66 11 -105 3 -18 -4 -34 -2 -35 3 -2 5 -7 6 -11 2z m193 -84 c0 -3 12 -7 28
-8 37 -3 52 -7 85 -21 16 -6 33 -9 38 -5 5 3 9 1 9 -4 0 -5 10 -12 23 -16 31
-8 31 -8 70 -42 7 -5 20 -13 30 -17 9 -3 17 -13 17 -22 0 -8 5 -14 12 -13 6 2
17 -7 23 -19 7 -13 14 -20 17 -17 3 2 8 -7 12 -21 4 -14 11 -25 17 -25 6 0 7
-4 4 -10 -3 -5 -2 -10 3 -10 9 0 26 -55 23 -72 0 -5 3 -8 7 -8 4 0 7 -20 7
-45 -1 -25 2 -45 7 -45 5 0 6 -6 2 -12 -5 -7 -9 -35 -10 -63 -2 -60 -6 -78
-19 -87 -6 -5 -5 -8 3 -8 9 0 8 -6 -4 -25 -8 -13 -13 -29 -9 -35 3 -5 -1 -13
-9 -16 -9 -3 -16 -10 -16 -14 0 -5 -5 -21 -12 -37 -6 -15 -11 -31 -10 -35 1
-5 -3 -8 -8 -8 -5 0 -9 -3 -9 -7 3 -19 -2 -34 -9 -29 -4 3 -7 -8 -6 -25 1 -16
-2 -27 -6 -24 -4 3 -10 -8 -13 -23 -3 -15 -8 -38 -12 -52 -10 -40 -7 -180 4
-194 6 -7 9 -15 6 -18 -3 -3 1 -21 9 -40 9 -20 12 -38 9 -42 -4 -3 0 -6 8 -6
11 0 11 -2 -1 -10 -9 -6 -11 -10 -3 -10 7 0 10 -7 6 -17 -4 -11 -3 -14 5 -9
17 11 15 2 -7 -23 -11 -12 -34 -24 -53 -27 -52 -8 -113 -8 -126 0 -6 3 -13 2
-17 -4 -4 -6 -13 -7 -23 -2 -9 5 -24 8 -32 7 -8 0 -18 4 -22 10 -5 6 -8 5 -8
-4 0 -11 -3 -11 -15 -1 -13 11 -49 20 -92 23 -7 0 -10 4 -7 9 5 7 -29 12 -41
6 -2 -2 -11 6 -20 17 -9 11 -13 14 -9 6 4 -9 3 -12 -3 -8 -6 4 -8 18 -6 32 3
14 10 22 16 18 6 -4 8 0 4 10 -4 10 -2 14 6 11 7 -2 28 9 46 25 19 17 38 28
42 25 5 -3 9 2 9 11 0 11 5 15 16 11 8 -3 12 -2 9 4 -3 5 5 14 17 21 13 7 33
24 45 38 13 14 23 22 23 16 1 -13 34 46 35 61 0 6 -8 18 -17 28 -10 10 -18 13
-18 7 0 -5 -9 -8 -20 -6 -11 2 -18 0 -15 -6 4 -5 -1 -9 -9 -9 -9 0 -16 -4 -16
-10 0 -5 -20 -21 -45 -36 -25 -14 -45 -28 -45 -31 0 -2 5 -1 12 3 7 4 8 3 4
-4 -4 -7 -11 -12 -16 -12 -9 0 -36 -20 -65 -47 -8 -7 -18 -13 -24 -13 -6 0
-11 -5 -11 -11 0 -6 -7 -9 -15 -5 -8 3 -15 1 -15 -5 0 -5 -13 -15 -30 -20 -16
-6 -27 -15 -24 -20 3 -5 2 -8 -3 -7 -13 3 -83 -25 -83 -34 0 -4 -3 -7 -7 -6
-9 1 -60 -10 -83 -20 -54 -21 -130 16 -130 65 0 12 -4 23 -8 23 -5 0 -8 25 -8
56 1 33 -4 60 -11 66 -7 6 -10 15 -7 20 3 5 -2 18 -11 28 -13 14 -18 40 -20
93 -2 82 -8 97 -35 97 -10 0 -26 7 -34 16 -9 8 -16 13 -16 9 0 -3 -5 -3 -10 0
-6 4 -7 12 -3 18 4 7 8 19 10 27 1 8 7 16 13 18 5 2 8 7 5 12 -3 4 10 24 29
43 19 20 32 38 29 40 -2 3 5 10 16 17 12 6 19 15 16 20 -3 5 -1 11 4 15 7 4 7
15 1 30 -5 14 -7 25 -4 25 2 0 -1 10 -7 22 -14 27 -21 145 -9 153 5 3 7 12 3
20 -3 8 0 15 6 15 6 0 10 3 10 8 -3 20 2 33 11 27 6 -4 10 -3 9 2 -4 23 5 37
53 85 28 28 46 48 38 43 -9 -5 -11 -4 -6 4 4 6 11 9 16 6 4 -3 13 2 20 10 7 8
17 12 23 8 6 -3 7 -1 3 5 -8 13 19 27 87 46 15 5 27 11 27 15 0 8 9 10 55 13
14 1 25 5 25 8 0 4 14 7 31 8 17 0 33 2 35 5 6 6 174 3 174 -3z"/>
<path d="M505 1101 c-3 -2 -5 -161 -5 -351 0 -267 3 -350 13 -357 11 -8 124
-9 132 -1 3 2 6 52 7 110 2 59 7 110 11 114 4 4 33 9 65 10 86 4 130 13 170
33 77 40 122 113 122 199 0 105 -50 182 -144 223 -45 20 -69 23 -209 24 -87 1
-160 -1 -162 -4z m304 -145 c41 -22 59 -55 57 -105 -3 -56 -39 -90 -97 -93
-21 -1 -53 -2 -69 -3 -17 -1 -34 3 -38 9 -11 18 -12 167 -1 187 8 15 21 19 65
19 30 0 68 -7 83 -14z"/>
</g>
</svg>
